<svg width="174" height="197" viewBox="0 0 174 197" fill="none" xmlns="http://www.w3.org/2000/svg">
<path fill-rule="evenodd" clip-rule="evenodd" d="M87.2591 48C76.952 48 67.9449 50.882 61.4762 56.663C55.5928 61.9211 52.0723 69.3447 51.4462 78.4651C48.7252 78.5899 46.1412 79.7257 44.2067 81.6603C42.1535 83.7135 41 86.4982 41 89.4019V96.6804C41.0009 99.5835 42.1548 102.368 44.2079 104.421C46.261 106.473 49.0452 107.626 51.9483 107.626H54.3453C56.0021 107.626 57.3453 106.283 57.3453 104.626V81.4536C57.3453 72.409 60.4157 65.6578 65.4744 61.1368C70.5781 56.5756 78.0278 54 87.2591 54C96.4902 54 103.94 56.5762 109.044 61.1376C114.081 65.6398 117.147 72.3529 117.173 81.3384C117.171 81.3774 117.171 81.4166 117.171 81.456V104.629C117.171 106.286 118.514 107.629 120.171 107.629H122.567C125.471 107.629 128.256 106.475 130.309 104.422C132.362 102.369 133.516 99.5841 133.516 96.6804V89.4019C133.515 86.4988 132.361 83.714 130.308 81.6615C128.374 79.7283 125.792 78.5931 123.072 78.4677C122.446 69.3471 118.926 61.9227 113.042 56.664C106.573 50.8827 97.5663 48 87.2591 48ZM48.4493 85.9029C49.234 85.1182 50.2551 84.6243 51.3453 84.4905V101.589C50.2554 101.456 49.2345 100.962 48.4499 100.177C47.5221 99.25 47.0006 97.9922 47 96.6804V89.4019C47 88.0895 47.5213 86.8309 48.4493 85.9029ZM123.171 101.592V84.4929C124.26 84.6267 125.281 85.1204 126.066 85.9048C126.994 86.8323 127.515 88.0901 127.516 89.4019V96.6804C127.516 97.9928 126.994 99.2514 126.066 100.179C125.282 100.964 124.261 101.458 123.171 101.592Z" fill="url(#paint0_linear_158_150)"/>
<path fill-rule="evenodd" clip-rule="evenodd" d="M74.6387 70.1009C76.1385 70.1009 77.5287 70.5705 78.6701 71.3706C79.8116 70.5705 81.2017 70.1009 82.7015 70.1009H91.8167C93.3165 70.1009 94.7066 70.5705 95.8481 71.3706C96.9895 70.5705 98.3797 70.1009 99.8795 70.1009H108.995C112.878 70.1009 116.026 73.249 116.026 77.1323V134.585C116.026 138.469 112.878 141.617 108.995 141.617H99.8795C98.3797 141.617 96.9895 141.147 95.8481 140.347C94.7066 141.147 93.3165 141.617 91.8167 141.617H82.7015C81.2017 141.617 79.8116 141.147 78.6701 140.347C77.5287 141.147 76.1385 141.617 74.6387 141.617H65.5236C61.6402 141.617 58.4922 138.469 58.4922 134.585V77.1323C58.4922 73.249 61.6402 70.1009 65.5236 70.1009H74.6387ZM64.4922 77.1323C64.4922 76.5627 64.954 76.1009 65.5236 76.1009H74.6387C75.2084 76.1009 75.6701 76.5627 75.6701 77.1323V82.3851H64.4922V77.1323ZM91.8167 76.1009C92.3863 76.1009 92.8481 76.5627 92.8481 77.1323V82.3851H81.6701V77.1323C81.6701 76.5627 82.1319 76.1009 82.7015 76.1009H91.8167ZM98.8481 77.1323V82.3851H110.026V77.1323C110.026 76.5627 109.564 76.1009 108.995 76.1009H99.8795C99.3099 76.1009 98.8481 76.5627 98.8481 77.1323ZM81.6701 88.3851H92.8481V134.585C92.8481 135.155 92.3863 135.617 91.8167 135.617H82.7015C82.1319 135.617 81.6701 135.155 81.6701 134.585V88.3851ZM99.8795 135.617C99.3099 135.617 98.8481 135.155 98.8481 134.585V88.3851H110.026V134.585C110.026 135.155 109.564 135.617 108.995 135.617H99.8795ZM75.6701 88.3851V134.585C75.6701 135.155 75.2083 135.617 74.6387 135.617H65.5236C64.954 135.617 64.4922 135.155 64.4922 134.585V88.3851H75.6701Z" fill="url(#paint1_linear_158_150)"/>
<path d="M50.3382 143C48.6814 143 47.3382 144.343 47.3382 146C47.3382 147.657 48.6814 149 50.3382 149H124.18C125.837 149 127.18 147.657 127.18 146C127.18 144.343 125.837 143 124.18 143H50.3382Z" fill="url(#paint2_linear_158_150)"/>
<path fill-rule="evenodd" clip-rule="evenodd" d="M81.6025 1.33974C84.6966 -0.446584 88.5085 -0.446581 91.6025 1.33975L168.205 45.5662C171.299 47.3526 173.205 50.6538 173.205 54.2265V142.68C173.205 146.252 171.299 149.553 168.205 151.34L91.6025 195.566C88.5085 197.353 84.6965 197.353 81.6025 195.566L4.99999 151.34C1.90598 149.553 0 146.252 0 142.68V54.2265C0 50.6538 1.90599 47.3526 5 45.5662L81.6025 1.33974ZM81.6025 11.3397C84.6966 9.55342 88.5085 9.55342 91.6025 11.3397L159.545 50.5662C162.639 52.3526 164.545 55.6538 164.545 59.2265V137.68C164.545 141.252 162.639 144.553 159.545 146.34L91.6025 185.566C88.5085 187.353 84.6965 187.353 81.6025 185.566L13.6603 146.34C10.5662 144.553 8.66026 141.252 8.66026 137.68V59.2265C8.66026 55.6538 10.5662 52.3526 13.6603 50.5662L81.6025 11.3397Z" fill="url(#paint3_linear_158_150)"/>
<defs>
<linearGradient id="paint0_linear_158_150" x1="-0.397461" y1="49.4531" x2="347.102" y2="258.453" gradientUnits="userSpaceOnUse">
<stop stop-color="white"/>
<stop offset="1" stop-color="#595959" stop-opacity="0"/>
</linearGradient>
<linearGradient id="paint1_linear_158_150" x1="-0.397461" y1="49.4531" x2="347.102" y2="258.453" gradientUnits="userSpaceOnUse">
<stop stop-color="white"/>
<stop offset="1" stop-color="#595959" stop-opacity="0"/>
</linearGradient>
<linearGradient id="paint2_linear_158_150" x1="-0.397461" y1="49.4531" x2="347.102" y2="258.453" gradientUnits="userSpaceOnUse">
<stop stop-color="white"/>
<stop offset="1" stop-color="#595959" stop-opacity="0"/>
</linearGradient>
<linearGradient id="paint3_linear_158_150" x1="-0.397461" y1="49.4531" x2="347.102" y2="258.453" gradientUnits="userSpaceOnUse">
<stop stop-color="white"/>
<stop offset="1" stop-color="#595959" stop-opacity="0"/>
</linearGradient>
</defs>
</svg>
