<svg width="174" height="197" viewBox="0 0 174 197" fill="none" xmlns="http://www.w3.org/2000/svg">
<path fill-rule="evenodd" clip-rule="evenodd" d="M91.6025 1.33975C88.5085 -0.446581 84.6966 -0.446584 81.6025 1.33974L5 45.5662C1.90599 47.3526 0 50.6538 0 54.2265V142.68C0 146.252 1.90598 149.553 4.99999 151.34L81.6025 195.566C84.6965 197.353 88.5085 197.353 91.6025 195.566L168.205 151.34C171.299 149.553 173.205 146.252 173.205 142.68V54.2265C173.205 50.6538 171.299 47.3526 168.205 45.5662L91.6025 1.33975ZM91.6025 11.3397C88.5085 9.55342 84.6966 9.55342 81.6025 11.3397L13.6603 50.5662C10.5662 52.3526 8.66026 55.6538 8.66026 59.2265V137.68C8.66026 141.252 10.5662 144.553 13.6603 146.34L81.6025 185.566C84.6965 187.353 88.5085 187.353 91.6025 185.566L159.545 146.34C162.639 144.553 164.545 141.252 164.545 137.68V59.2265C164.545 55.6538 162.639 52.3526 159.545 50.5662L91.6025 11.3397Z" fill="url(#paint0_linear_160_35)"/>
<path d="M137 94.2857C137.004 90.1842 135.998 86.1449 134.073 82.5237C132.147 78.9025 129.359 75.8107 125.957 73.521C122.554 71.2313 118.64 69.814 114.56 69.394C110.48 68.974 106.36 69.5643 102.562 71.1127C98.7637 72.6612 95.405 75.1202 92.7818 78.2731C90.1586 81.426 88.3514 85.1759 87.5196 89.1921C86.6877 93.2083 86.8568 97.3675 88.0118 101.303C89.1669 105.238 91.2724 108.829 94.1429 111.759V137.143C94.1424 137.752 94.2978 138.351 94.5941 138.883C94.8905 139.415 95.318 139.863 95.8361 140.183C96.3541 140.503 96.9455 140.686 97.554 140.713C98.1624 140.741 98.7678 140.612 99.3125 140.339L112 133.991L124.687 140.339C125.232 140.612 125.838 140.741 126.446 140.713C127.054 140.686 127.646 140.503 128.164 140.183C128.682 139.863 129.109 139.415 129.406 138.883C129.702 138.351 129.858 137.752 129.857 137.143V111.759C134.438 107.097 137.003 100.822 137 94.2857ZM112 76.4286C115.532 76.4286 118.984 77.4759 121.921 79.438C124.857 81.4002 127.146 84.1891 128.498 87.4521C129.849 90.715 130.203 94.3055 129.514 97.7695C128.825 101.233 127.124 104.415 124.627 106.913C122.13 109.41 118.948 111.111 115.484 111.8C112.02 112.489 108.429 112.135 105.166 110.784C101.903 109.432 99.1145 107.143 97.1523 104.207C95.1902 101.27 94.1429 97.8175 94.1429 94.2857C94.1429 89.5497 96.0242 85.0077 99.3731 81.6588C102.722 78.3099 107.264 76.4286 112 76.4286ZM113.598 126.804C113.102 126.555 112.555 126.426 112 126.426C111.445 126.426 110.898 126.555 110.402 126.804L101.286 131.366V116.871C104.634 118.461 108.294 119.286 112 119.286C115.706 119.286 119.366 118.461 122.714 116.871V131.366L113.598 126.804ZM87 122.857C87 123.804 86.6237 124.713 85.9539 125.383C85.2842 126.052 84.3758 126.429 83.4286 126.429H44.1429C42.2485 126.429 40.4316 125.676 39.0921 124.336C37.7525 122.997 37 121.18 37 119.286V62.1429C37 60.2485 37.7525 58.4316 39.0921 57.0921C40.4316 55.7525 42.2485 55 44.1429 55H122.714C124.609 55 126.425 55.7525 127.765 57.0921C129.105 58.4316 129.857 60.2485 129.857 62.1429C129.857 63.0901 129.481 63.9985 128.811 64.6682C128.141 65.338 127.233 65.7143 126.286 65.7143C125.338 65.7143 124.43 65.338 123.76 64.6682C123.091 63.9985 122.714 63.0901 122.714 62.1429H44.1429V119.286H83.4286C84.3758 119.286 85.2842 119.662 85.9539 120.332C86.6237 121.002 87 121.91 87 122.857ZM79.8571 97.8571C79.8571 98.8043 79.4809 99.7127 78.8111 100.383C78.1413 101.052 77.2329 101.429 76.2857 101.429H58.4286C57.4814 101.429 56.573 101.052 55.9032 100.383C55.2334 99.7127 54.8571 98.8043 54.8571 97.8571C54.8571 96.9099 55.2334 96.0015 55.9032 95.3318C56.573 94.662 57.4814 94.2857 58.4286 94.2857H76.2857C77.2329 94.2857 78.1413 94.662 78.8111 95.3318C79.4809 96.0015 79.8571 96.9099 79.8571 97.8571ZM79.8571 83.5714C79.8571 84.5186 79.4809 85.427 78.8111 86.0968C78.1413 86.7666 77.2329 87.1429 76.2857 87.1429H58.4286C57.4814 87.1429 56.573 86.7666 55.9032 86.0968C55.2334 85.427 54.8571 84.5186 54.8571 83.5714C54.8571 82.6242 55.2334 81.7158 55.9032 81.046C56.573 80.3763 57.4814 80 58.4286 80H76.2857C77.2329 80 78.1413 80.3763 78.8111 81.046C79.4809 81.7158 79.8571 82.6242 79.8571 83.5714Z" fill="url(#paint1_linear_160_35)"/>
<defs>
<linearGradient id="paint0_linear_160_35" x1="-0.397461" y1="49.4531" x2="381.5" y2="285" gradientUnits="userSpaceOnUse">
<stop stop-color="#AD00FF"/>
<stop offset="1" stop-color="#232323" stop-opacity="0"/>
</linearGradient>
<linearGradient id="paint1_linear_160_35" x1="-0.397461" y1="49.4531" x2="381.5" y2="285" gradientUnits="userSpaceOnUse">
<stop stop-color="#AD00FF"/>
<stop offset="1" stop-color="#232323" stop-opacity="0"/>
</linearGradient>
</defs>
</svg>
