<svg width="174" height="197" viewBox="0 0 174 197" fill="none" xmlns="http://www.w3.org/2000/svg">
<path fill-rule="evenodd" clip-rule="evenodd" d="M81.6025 1.33974C84.6966 -0.446583 88.5085 -0.44658 91.6025 1.33975L168.205 45.5662C171.299 47.3526 173.205 50.6538 173.205 54.2265V142.68C173.205 146.252 171.299 149.553 168.205 151.34L91.6025 195.566C88.5085 197.353 84.6965 197.353 81.6025 195.566L4.99999 151.34C1.90598 149.553 0 146.252 0 142.68V54.2265C0 50.6538 1.90599 47.3526 5 45.5662L81.6025 1.33974ZM81.6025 11.3397C84.6966 9.55342 88.5085 9.55342 91.6025 11.3397L159.545 50.5662C162.639 52.3526 164.545 55.6538 164.545 59.2265V137.68C164.545 141.252 162.639 144.553 159.545 146.34L91.6025 185.566C88.5085 187.353 84.6965 187.353 81.6025 185.566L13.6603 146.34C10.5662 144.553 8.66026 141.252 8.66026 137.68V59.2265C8.66026 55.6538 10.5662 52.3526 13.6603 50.5662L81.6025 11.3397ZM44.4562 67.7371L81.928 45.3602C83.5338 44.4682 85.3407 44 87.1779 44C89.0152 44 90.8219 44.4682 92.4278 45.3601L129.235 67.3464C129.411 67.5463 129.626 67.7108 129.868 67.8279C130.994 68.5009 131.98 69.3757 132.78 70.4047L112.001 83.3914L88.0891 68.4464C87.8075 68.2639 87.4771 68.1503 87.1218 68.1295C87.0825 68.1272 87.0429 68.1261 87.003 68.1261C86.9685 68.1261 86.9342 68.1269 86.9001 68.1287C86.5388 68.147 86.2028 68.2612 85.917 68.4463L62.0789 83.3451L42.3545 69.2563C42.9673 68.686 43.653 68.1847 44.4026 67.768C44.4206 67.758 44.4385 67.7477 44.4562 67.7371ZM60.0047 86.7792L39.9989 72.4893C39.3519 73.8686 39 75.3957 39 76.9755V117.947V117.948C39.0007 119.824 39.5019 121.666 40.452 123.283C41.4022 124.901 42.767 126.236 44.4054 127.151C44.4408 127.17 44.4756 127.191 44.5097 127.213L81.9519 151.201C82.9092 151.725 83.9389 152.096 85.0029 152.301V127.481L60.9717 112.461C60.6852 112.289 60.4389 112.043 60.2642 111.734C60.2474 111.704 60.2313 111.674 60.2158 111.643C60.1971 111.605 60.1797 111.568 60.1636 111.53C60.05 111.263 59.9989 110.983 60.0047 110.708V86.7792ZM66.0887 110.942L87.003 124.014L107.917 110.942L87.003 100.485L66.0887 110.942ZM113.834 111.55C113.954 111.277 114.007 110.99 114.001 110.708V86.8583L134.596 73.9865C134.871 74.9491 135.008 75.9501 135 76.9596L135 76.9755V117.941C135 121.766 132.93 125.291 129.59 127.149C129.554 127.17 129.518 127.191 129.484 127.213L92.0414 151.201C91.0879 151.723 90.0625 152.093 89.0029 152.299V127.481L113.034 112.461C113.317 112.291 113.56 112.05 113.735 111.746C113.754 111.713 113.773 111.678 113.79 111.643C113.806 111.612 113.82 111.581 113.834 111.55ZM110.001 107.512L89.003 97.0131V73.7346L110.001 86.8585V107.512ZM85.003 73.7346V97.0131L64.0047 107.512V86.8585L85.003 73.7346ZM131.951 64.3092C132.139 64.4215 132.303 64.5609 132.44 64.7201C133.898 65.6777 135.17 66.8888 136.197 68.2936C137.092 67.9007 138.163 68.213 138.696 69.0659C139.275 69.9934 139.002 71.2123 138.087 71.8045C138.701 73.4546 139.013 75.2087 139 76.9823V117.941C139 123.195 136.168 128.039 131.591 130.613L94.1439 154.604C94.125 154.617 94.1059 154.628 94.0865 154.64C94.0698 154.65 94.053 154.659 94.036 154.669C91.9192 155.844 89.5422 156.471 87.1223 156.492C87.0828 156.494 87.043 156.495 87.0029 156.495C86.9635 156.495 86.9244 156.494 86.8856 156.492C84.4606 156.473 82.0784 155.847 79.9573 154.669C79.9207 154.649 79.8847 154.627 79.8494 154.604L42.4013 130.613C40.1657 129.352 38.303 127.523 37.0029 125.309C35.6922 123.077 35.0008 120.536 35 117.948V117.948V76.9755C35 71.7068 37.842 66.8519 42.431 64.2875L79.9029 41.9106C79.9194 41.9007 79.936 41.8911 79.9527 41.8818C82.1609 40.6478 84.6483 40 87.1779 40C89.7075 40 92.1949 40.6478 94.4031 41.8818C94.4199 41.8912 94.4366 41.9008 94.4531 41.9107L131.951 64.3092Z" fill="url(#paint0_linear_159_197)"/>
<defs>
<linearGradient id="paint0_linear_159_197" x1="-0.397461" y1="49.4531" x2="347.102" y2="258.453" gradientUnits="userSpaceOnUse">
<stop stop-color="#61FF00"/>
<stop offset="1" stop-color="#595959" stop-opacity="0"/>
</linearGradient>
</defs>
</svg>
