<svg width="174" height="197" viewBox="0 0 174 197" fill="none" xmlns="http://www.w3.org/2000/svg">
<path fill-rule="evenodd" clip-rule="evenodd" d="M91.6025 1.33975C88.5085 -0.446581 84.6966 -0.446584 81.6025 1.33974L5 45.5662C1.90599 47.3526 0 50.6538 0 54.2265V142.68C0 146.252 1.90598 149.553 4.99999 151.34L81.6025 195.566C84.6965 197.353 88.5085 197.353 91.6025 195.566L168.205 151.34C171.299 149.553 173.205 146.252 173.205 142.68V54.2265C173.205 50.6538 171.299 47.3526 168.205 45.5662L91.6025 1.33975ZM91.6025 11.3397C88.5085 9.55342 84.6966 9.55342 81.6025 11.3397L13.6603 50.5662C10.5662 52.3526 8.66026 55.6538 8.66026 59.2265V137.68C8.66026 141.252 10.5662 144.553 13.6603 146.34L81.6025 185.566C84.6965 187.353 88.5085 187.353 91.6025 185.566L159.545 146.34C162.639 144.553 164.545 141.252 164.545 137.68V59.2265C164.545 55.6538 162.639 52.3526 159.545 50.5662L91.6025 11.3397Z" fill="url(#paint0_linear_159_173)"/>
<path d="M73.3948 52.5503H53.7343C52.2135 52.5503 50.7549 53.205 49.6795 54.3704C48.6041 55.5358 48 57.1165 48 58.7646V129.786C48 131.434 48.6041 133.014 49.6795 134.18C50.7549 135.345 52.2135 136 53.7343 136H73.3948C74.1479 136 74.8935 135.839 75.5893 135.527C76.285 135.215 76.9171 134.757 77.4496 134.18C77.9821 133.603 78.4045 132.918 78.6927 132.164C78.9808 131.41 79.1292 130.602 79.1292 129.786V58.7646C79.1292 57.9485 78.9808 57.1404 78.6927 56.3865C78.4045 55.6325 77.9821 54.9475 77.4496 54.3704C76.9171 53.7933 76.285 53.3356 75.5893 53.0233C74.8935 52.711 74.1479 52.5503 73.3948 52.5503ZM52.9151 72.081H74.214V116.469H52.9151V72.081ZM53.7343 57.8768H73.3948C73.6121 57.8768 73.8205 57.9704 73.9741 58.1369C74.1277 58.3033 74.214 58.5292 74.214 58.7646V66.7545H52.9151V58.7646C52.9151 58.5292 53.0014 58.3033 53.1551 58.1369C53.3087 57.9704 53.5171 57.8768 53.7343 57.8768ZM73.3948 130.673H53.7343C53.5171 130.673 53.3087 130.58 53.1551 130.413C53.0014 130.247 52.9151 130.021 52.9151 129.786V121.796H74.214V129.786C74.214 130.021 74.1277 130.247 73.9741 130.413C73.8205 130.58 73.6121 130.673 73.3948 130.673ZM124.881 124.015L111.286 53.9529C111.133 53.1509 110.835 52.3896 110.409 51.7129C109.983 51.0361 109.438 50.4574 108.805 50.0098C108.172 49.5622 107.463 49.2546 106.72 49.1048C105.977 48.955 105.214 48.9659 104.475 49.1368L85.3017 53.6023C83.8179 53.9557 82.5225 54.929 81.6967 56.311C80.8708 57.6929 80.5811 59.372 80.8904 60.984L94.4848 131.033C94.6395 131.838 94.9399 132.601 95.3688 133.28C95.7977 133.958 96.3465 134.537 96.9834 134.984C97.9051 135.637 98.9825 135.986 100.084 135.987C100.497 135.989 100.909 135.941 101.313 135.845L120.486 131.384C121.964 131.026 123.253 130.053 124.076 128.675C124.898 127.296 125.187 125.623 124.881 124.015ZM90.9623 87.031L111.741 82.1927L117.525 112.004L96.7417 116.829L90.9623 87.031ZM88.2467 73.0221L109.03 68.1705L110.729 76.9637L89.9506 81.8021L88.2467 73.0221ZM86.338 58.8179L105.507 54.3569C105.564 54.3509 105.622 54.3509 105.679 54.3569C105.832 54.3571 105.982 54.4065 106.109 54.4989C106.203 54.5638 106.284 54.6489 106.347 54.7489C106.409 54.8489 106.453 54.9617 106.474 55.0804L108.01 62.9904L87.235 67.7932L85.7031 59.9009C85.6553 59.665 85.6951 59.4182 85.8139 59.2138C85.9327 59.0095 86.121 58.864 86.338 58.809V58.8179ZM119.437 126.199L100.264 130.673C100.162 130.698 100.055 130.7 99.952 130.68C99.8485 130.659 99.75 130.616 99.6621 130.554C99.568 130.489 99.4872 130.404 99.4245 130.304C99.3618 130.204 99.3186 130.091 99.2976 129.972L97.7616 122.062L118.536 117.224L120.089 125.094C120.113 125.212 120.115 125.335 120.095 125.454C120.075 125.573 120.034 125.687 119.974 125.789C119.913 125.891 119.834 125.979 119.742 126.048C119.65 126.116 119.547 126.165 119.437 126.19V126.199Z" fill="url(#paint1_linear_159_173)"/>
<defs>
<linearGradient id="paint0_linear_159_173" x1="-0.397461" y1="49.4531" x2="347.102" y2="258.453" gradientUnits="userSpaceOnUse">
<stop stop-color="white"/>
<stop offset="1" stop-color="#595959" stop-opacity="0"/>
</linearGradient>
<linearGradient id="paint1_linear_159_173" x1="-0.397461" y1="49.4531" x2="347.102" y2="258.453" gradientUnits="userSpaceOnUse">
<stop stop-color="white"/>
<stop offset="1" stop-color="#595959" stop-opacity="0"/>
</linearGradient>
</defs>
</svg>
