<svg width="174" height="197" viewBox="0 0 174 197" fill="none" xmlns="http://www.w3.org/2000/svg">
<path fill-rule="evenodd" clip-rule="evenodd" d="M91.6025 1.33975C88.5085 -0.446581 84.6966 -0.446584 81.6025 1.33974L5 45.5662C1.90599 47.3526 0 50.6538 0 54.2265V142.68C0 146.252 1.90598 149.553 4.99999 151.34L81.6025 195.566C84.6965 197.353 88.5085 197.353 91.6025 195.566L168.205 151.34C171.299 149.553 173.205 146.252 173.205 142.68V54.2265C173.205 50.6538 171.299 47.3526 168.205 45.5662L91.6025 1.33975ZM91.6025 11.3397C88.5085 9.55342 84.6966 9.55342 81.6025 11.3397L13.6603 50.5662C10.5662 52.3526 8.66026 55.6538 8.66026 59.2265V137.68C8.66026 141.252 10.5662 144.553 13.6603 146.34L81.6025 185.566C84.6965 187.353 88.5085 187.353 91.6025 185.566L159.545 146.34C162.639 144.553 164.545 141.252 164.545 137.68V59.2265C164.545 55.6538 162.639 52.3526 159.545 50.5662L91.6025 11.3397Z" fill="url(#paint0_linear_160_41)"/>
<path d="M134.559 145H110.476V141.1H134.559V145ZM131.119 121.6C128.676 121.6 126.405 123.101 125.184 125.5H124.238V115.75H129.399V111.85H124.238V106H120.797V111.85H115.637V115.75H120.797V125.5H119.851C117.959 121.776 113.744 120.488 110.476 122.653C108.891 123.68 107.73 125.377 107.247 127.373C106.763 129.368 106.996 131.499 107.895 133.3C109.168 135.718 111.456 137.2 113.916 137.2H131.119C132.944 137.2 134.694 136.378 135.985 134.915C137.275 133.453 138 131.469 138 129.4C138 127.331 137.275 125.347 135.985 123.885C134.694 122.422 132.944 121.6 131.119 121.6Z" fill="url(#paint1_linear_160_41)"/>
<path d="M107 60L103.287 60.7812L53.2875 70.1562L50.75 70.5469V112.444C48.8622 111.307 46.7034 110.7 44.5 110.684C37.625 110.684 32 116.309 32 123.184C32 130.059 37.625 135.684 44.5 135.684C51.375 135.684 57 130.059 57 123.184V88.2219L100.75 80.0219V103.066C98.8619 101.93 96.7032 101.324 94.5 101.309C87.625 101.309 82 106.934 82 113.809C82 120.684 87.625 126.309 94.5 126.309C101.375 126.309 107 120.684 107 113.809V60ZM100.75 67.5188V73.7688L57 81.975V75.725L100.75 67.5188ZM94.5 107.559C97.9906 107.559 100.75 110.319 100.75 113.809C100.75 117.3 97.9906 120.059 94.5 120.059C91.0094 120.059 88.25 117.3 88.25 113.809C88.25 110.319 91.0094 107.559 94.5 107.559ZM44.5 116.934C47.9906 116.934 50.75 119.694 50.75 123.184C50.75 126.675 47.9906 129.434 44.5 129.434C41.0094 129.434 38.25 126.675 38.25 123.184C38.25 119.694 41.0094 116.934 44.5 116.934Z" fill="url(#paint2_linear_160_41)"/>
<defs>
<linearGradient id="paint0_linear_160_41" x1="-0.397461" y1="49.4531" x2="347.102" y2="258.453" gradientUnits="userSpaceOnUse">
<stop stop-color="white"/>
<stop offset="1" stop-color="#595959" stop-opacity="0"/>
</linearGradient>
<linearGradient id="paint1_linear_160_41" x1="-0.397461" y1="49.4531" x2="347.102" y2="258.453" gradientUnits="userSpaceOnUse">
<stop stop-color="white"/>
<stop offset="1" stop-color="#595959" stop-opacity="0"/>
</linearGradient>
<linearGradient id="paint2_linear_160_41" x1="-0.397461" y1="49.4531" x2="347.102" y2="258.453" gradientUnits="userSpaceOnUse">
<stop stop-color="white"/>
<stop offset="1" stop-color="#595959" stop-opacity="0"/>
</linearGradient>
</defs>
</svg>
