<svg width="174" height="197" viewBox="0 0 174 197" fill="none" xmlns="http://www.w3.org/2000/svg">
<path d="M49.1025 79.7031H111.603V73.4531H49.1025V79.7031Z" fill="url(#paint0_linear_158_122)"/>
<path d="M86.6025 117.203H111.603V110.953H86.6025V117.203Z" fill="url(#paint1_linear_158_122)"/>
<path d="M86.6025 104.703H111.603V98.4531H86.6025V104.703Z" fill="url(#paint2_linear_158_122)"/>
<path d="M86.6025 92.2031H111.603V85.9531H86.6025V92.2031Z" fill="url(#paint3_linear_158_122)"/>
<path fill-rule="evenodd" clip-rule="evenodd" d="M49.1025 117.203H80.3525V85.8066H49.1025V117.203ZM74.1025 110.953H55.3525V92.0566H74.1025V110.953Z" fill="url(#paint4_linear_158_122)"/>
<path fill-rule="evenodd" clip-rule="evenodd" d="M136.603 117.203V73.4531H124.103V60.9531H36.6025V117.545C36.6025 119.205 36.9277 120.784 37.5791 122.281C38.2305 123.779 39.1094 125.064 40.2158 126.139C41.3223 127.213 42.6084 128.075 44.0732 128.727C45.5381 129.378 47.1006 129.703 48.7607 129.703H124.103C125.795 129.671 127.406 129.329 128.937 128.678C130.467 128.027 131.801 127.132 132.94 125.992C134.08 124.853 134.975 123.534 135.626 122.037C136.277 120.54 136.603 118.928 136.603 117.203ZM124.103 79.7031H130.353V117.203C130.385 118.049 130.223 118.863 129.864 119.644C129.506 120.426 129.051 121.093 128.497 121.646C128.151 121.992 127.768 122.293 127.347 122.55C127.093 122.704 126.825 122.842 126.544 122.965C125.795 123.29 124.981 123.453 124.103 123.453H48.7607C47.9473 123.453 47.1816 123.29 46.4658 122.965C45.75 122.639 45.1152 122.216 44.5615 121.695C44.0078 121.174 43.585 120.556 43.292 119.84C42.999 119.124 42.8525 118.359 42.8525 117.545V67.2031H117.853V114.078C117.853 114.924 118.162 115.657 118.78 116.275C119.398 116.894 120.131 117.203 120.978 117.203C121.824 117.203 122.557 116.894 123.175 116.275C123.793 115.657 124.103 114.924 124.103 114.078V79.7031Z" fill="url(#paint5_linear_158_122)"/>
<path fill-rule="evenodd" clip-rule="evenodd" d="M81.6025 1.33978C84.6963 -0.446594 88.5088 -0.446594 91.6025 1.33978L168.205 45.5663C171.299 47.3527 173.205 50.654 173.205 54.2265V142.68C173.205 146.252 171.299 149.553 168.205 151.34L91.6025 195.566C88.5088 197.353 84.6963 197.353 81.6025 195.566L5 151.34C1.90625 149.553 0 146.252 0 142.68V54.2265C0 50.654 1.90625 47.3527 5 45.5663L81.6025 1.33978ZM81.6025 11.3398C84.6963 9.55341 88.5088 9.55341 91.6025 11.3398L159.545 50.5663C162.639 52.3527 164.545 55.654 164.545 59.2265V137.68C164.545 141.252 162.639 144.553 159.545 146.34L91.6025 185.566C88.5088 187.353 84.6963 187.353 81.6025 185.566L13.6602 146.34C10.5664 144.553 8.66016 141.252 8.66016 137.68V59.2265C8.66016 55.654 10.5664 52.3527 13.6602 50.5663L81.6025 11.3398Z" fill="url(#paint6_linear_158_122)"/>
<defs>
<linearGradient id="paint0_linear_158_122" x1="-0.397461" y1="49.4531" x2="347.103" y2="258.453" gradientUnits="userSpaceOnUse">
<stop stop-color="#FF0000"/>
<stop offset="1" stop-color="#595959" stop-opacity="0"/>
</linearGradient>
<linearGradient id="paint1_linear_158_122" x1="-0.397461" y1="49.4531" x2="347.103" y2="258.453" gradientUnits="userSpaceOnUse">
<stop stop-color="#FF0000"/>
<stop offset="1" stop-color="#595959" stop-opacity="0"/>
</linearGradient>
<linearGradient id="paint2_linear_158_122" x1="-0.397461" y1="49.4531" x2="347.103" y2="258.453" gradientUnits="userSpaceOnUse">
<stop stop-color="#FF0000"/>
<stop offset="1" stop-color="#595959" stop-opacity="0"/>
</linearGradient>
<linearGradient id="paint3_linear_158_122" x1="-0.397461" y1="49.4531" x2="347.103" y2="258.453" gradientUnits="userSpaceOnUse">
<stop stop-color="#FF0000"/>
<stop offset="1" stop-color="#595959" stop-opacity="0"/>
</linearGradient>
<linearGradient id="paint4_linear_158_122" x1="-0.397461" y1="49.4531" x2="347.103" y2="258.453" gradientUnits="userSpaceOnUse">
<stop stop-color="#FF0000"/>
<stop offset="1" stop-color="#595959" stop-opacity="0"/>
</linearGradient>
<linearGradient id="paint5_linear_158_122" x1="-0.397461" y1="49.4531" x2="347.103" y2="258.453" gradientUnits="userSpaceOnUse">
<stop stop-color="#FF0000"/>
<stop offset="1" stop-color="#595959" stop-opacity="0"/>
</linearGradient>
<linearGradient id="paint6_linear_158_122" x1="-0.397461" y1="49.4531" x2="347.103" y2="258.453" gradientUnits="userSpaceOnUse">
<stop stop-color="#FF0000"/>
<stop offset="1" stop-color="#595959" stop-opacity="0"/>
</linearGradient>
</defs>
</svg>
