<svg width="174" height="197" viewBox="0 0 174 197" fill="none" xmlns="http://www.w3.org/2000/svg">
<path d="M90.5752 114.003C91.4966 114.003 92.2417 112.472 92.2417 110.575C92.2417 108.687 91.4966 107.143 90.5752 107.143C89.6519 107.143 88.9082 108.687 88.9082 110.575C88.9082 112.472 89.6519 114.003 90.5752 114.003Z" fill="url(#paint0_linear_159_184)"/>
<path d="M83.4219 114.003C84.3433 114.003 85.0884 112.472 85.0884 110.575C85.0884 108.687 84.3433 107.143 83.4219 107.143C82.4985 107.143 81.7549 108.687 81.7549 110.575C81.7549 112.472 82.4985 114.003 83.4219 114.003Z" fill="url(#paint1_linear_159_184)"/>
<path d="M107.303 98.9084C107.303 103.05 104.692 106.408 101.47 106.408C98.2485 106.408 95.6367 103.05 95.6367 98.9084C95.6367 94.7663 98.2485 91.4084 101.47 91.4084C104.692 91.4084 107.303 94.7663 107.303 98.9084Z" fill="url(#paint2_linear_159_184)"/>
<path d="M72.5298 106.408C75.7515 106.408 78.3633 103.05 78.3633 98.9084C78.3633 94.7663 75.7515 91.4084 72.5298 91.4084C69.3081 91.4084 66.6968 94.7663 66.6968 98.9084C66.6968 103.05 69.3081 106.408 72.5298 106.408Z" fill="url(#paint3_linear_159_184)"/>
<path d="M74.7544 120.532C77.9243 121.023 82.4829 121.73 86.9966 121.73C91.5156 121.731 96.0776 121.023 99.2476 120.532C101.561 120.173 103.132 119.929 103.403 120.16C105.783 122.185 98.4966 131.73 86.9966 131.789C75.4951 131.725 68.2134 122.183 70.5884 120.16C70.8599 119.928 72.4355 120.173 74.7544 120.532Z" fill="url(#paint4_linear_159_184)"/>
<path fill-rule="evenodd" clip-rule="evenodd" d="M125.479 87.4201C123.85 76.1818 117.157 68.4101 105.96 63.9702C107.868 62.9619 109.102 62.4567 109.102 62.4567C103.708 60.5568 99.0269 59.4501 94.9731 58.9467C97.105 57.3417 98.5283 56.7316 98.5283 56.7316C65.6084 52.0883 49.375 70.3984 48.355 87.445C41.9048 88.5768 37 94.1818 37 100.947C37 107.642 41.8052 113.203 48.1602 114.414C48.8867 130.105 65.9932 142.665 86.9985 142.665C108.007 142.665 125.113 130.105 125.84 114.414C132.193 113.202 137 107.638 137 100.947C137 94.1266 132.008 88.4833 125.479 87.4201ZM48.5015 109.56C44.6519 108.56 41.7969 105.102 41.7969 100.947C41.7969 96.9201 44.4849 93.55 48.1567 92.4367C48.2383 96.04 49.1865 99.485 50.8467 102.66C49.7163 104.826 48.9253 107.154 48.5015 109.56ZM107.914 112.539C110.126 115.299 111.423 118.522 111.423 121.98C111.423 132.117 100.487 140.33 86.9985 140.33C73.5098 140.33 62.5752 132.117 62.5752 121.98C62.5752 118.522 63.8701 115.299 66.0864 112.539C58.4917 107.942 53.6299 100.905 53.6299 93.0068C53.6299 64.7834 86.9985 82.7634 86.9985 82.7634C86.9985 82.7634 120.368 64.7851 120.368 93.0068C120.368 100.904 115.507 107.942 107.914 112.539ZM125.499 109.56C125.074 107.154 124.284 104.826 123.155 102.658C124.815 99.4833 125.762 96.0385 125.843 92.435C129.515 93.55 132.202 96.9184 132.202 100.945C132.202 105.102 129.348 108.56 125.499 109.56Z" fill="url(#paint5_linear_159_184)"/>
<path fill-rule="evenodd" clip-rule="evenodd" d="M81.6025 1.33978C84.6968 -0.446594 88.5083 -0.446594 91.6025 1.33978L168.205 45.5661C171.299 47.3525 173.205 50.6537 173.205 54.2265V142.679C173.205 146.252 171.299 149.553 168.205 151.34L91.6025 195.566C88.5083 197.352 84.6968 197.352 81.6025 195.566L5 151.34C1.90576 149.553 0 146.252 0 142.679V54.2265C0 50.6537 1.90576 47.3525 5 45.5661L81.6025 1.33978ZM81.6025 11.3398C84.6968 9.55341 88.5083 9.55341 91.6025 11.3398L159.545 50.5661C162.639 52.3525 164.545 55.6537 164.545 59.2265V137.679C164.545 141.252 162.639 144.553 159.545 146.34L91.6025 185.566C88.5083 187.352 84.6968 187.352 81.6025 185.566L13.6602 146.34C10.5664 144.553 8.66016 141.252 8.66016 137.679V59.2265C8.66016 55.6537 10.5664 52.3525 13.6602 50.5661L81.6025 11.3398Z" fill="url(#paint6_linear_159_184)"/>
<defs>
<linearGradient id="paint0_linear_159_184" x1="-0.397464" y1="49.4531" x2="433.5" y2="308.5" gradientUnits="userSpaceOnUse">
<stop stop-color="#FFD600"/>
<stop offset="1" stop-color="#595959" stop-opacity="0"/>
</linearGradient>
<linearGradient id="paint1_linear_159_184" x1="-0.397464" y1="49.4531" x2="433.5" y2="308.5" gradientUnits="userSpaceOnUse">
<stop stop-color="#FFD600"/>
<stop offset="1" stop-color="#595959" stop-opacity="0"/>
</linearGradient>
<linearGradient id="paint2_linear_159_184" x1="-0.397464" y1="49.4531" x2="433.5" y2="308.5" gradientUnits="userSpaceOnUse">
<stop stop-color="#FFD600"/>
<stop offset="1" stop-color="#595959" stop-opacity="0"/>
</linearGradient>
<linearGradient id="paint3_linear_159_184" x1="-0.397464" y1="49.4531" x2="433.5" y2="308.5" gradientUnits="userSpaceOnUse">
<stop stop-color="#FFD600"/>
<stop offset="1" stop-color="#595959" stop-opacity="0"/>
</linearGradient>
<linearGradient id="paint4_linear_159_184" x1="-0.397464" y1="49.4531" x2="433.5" y2="308.5" gradientUnits="userSpaceOnUse">
<stop stop-color="#FFD600"/>
<stop offset="1" stop-color="#595959" stop-opacity="0"/>
</linearGradient>
<linearGradient id="paint5_linear_159_184" x1="-0.397464" y1="49.4531" x2="433.5" y2="308.5" gradientUnits="userSpaceOnUse">
<stop stop-color="#FFD600"/>
<stop offset="1" stop-color="#595959" stop-opacity="0"/>
</linearGradient>
<linearGradient id="paint6_linear_159_184" x1="-0.397464" y1="49.4531" x2="433.5" y2="308.5" gradientUnits="userSpaceOnUse">
<stop stop-color="#FFD600"/>
<stop offset="1" stop-color="#595959" stop-opacity="0"/>
</linearGradient>
</defs>
</svg>
