<svg width="174" height="198" viewBox="0 0 174 198" fill="none" xmlns="http://www.w3.org/2000/svg">
<path fill-rule="evenodd" clip-rule="evenodd" d="M92 1.88687C88.906 0.100539 85.094 0.100536 82 1.88686L5.39746 46.1134C2.30345 47.8997 0.397461 51.201 0.397461 54.7736V143.227C0.397461 146.799 2.30344 150.101 5.39746 151.887L82 196.113C85.094 197.9 88.906 197.9 92 196.113L168.603 151.887C171.697 150.101 173.603 146.799 173.603 143.227V54.7736C173.603 51.201 171.697 47.8997 168.603 46.1134L92 1.88687ZM92 11.8869C88.906 10.1005 85.094 10.1005 82 11.8869L14.0577 51.1134C10.9637 52.8997 9.05772 56.201 9.05772 59.7736V138.227C9.05772 141.799 10.9637 145.101 14.0577 146.887L82 186.113C85.094 187.9 88.906 187.9 92 186.113L159.942 146.887C163.036 145.101 164.942 141.799 164.942 138.227V59.7736C164.942 56.201 163.036 52.8997 159.942 51.1134L92 11.8869Z" fill="url(#paint0_linear_158_143)"/>
<path d="M87 55.3751C97.7744 55.3751 108.108 59.6552 115.726 67.2739C123.345 74.8926 127.625 85.2257 127.625 96.0001C127.625 106.775 123.345 117.108 115.726 124.726C108.108 132.345 97.7744 136.625 87 136.625C76.2256 136.625 65.8925 132.345 58.2738 124.726C50.6551 117.108 46.375 106.775 46.375 96.0001C46.375 85.2257 50.6551 74.8926 58.2738 67.2739C65.8925 59.6552 76.2256 55.3751 87 55.3751ZM87 146C100.261 146 112.979 140.732 122.355 131.355C131.732 121.979 137 109.261 137 96.0001C137 82.7393 131.732 70.0216 122.355 60.6448C112.979 51.268 100.261 46.0001 87 46.0001C73.7392 46.0001 61.0215 51.268 51.6447 60.6448C42.2678 70.0216 37 82.7393 37 96.0001C37 109.261 42.2678 121.979 51.6447 131.355C61.0215 140.732 73.7392 146 87 146ZM75.9453 107.055C69.8516 100.961 69.8516 91.0587 75.9453 84.965C82.0391 78.8712 91.9414 78.8712 98.0352 84.965C99.8711 86.8009 102.84 86.8009 104.656 84.965C106.473 83.129 106.492 80.1603 104.656 78.3439C94.8906 68.5782 79.0703 68.5782 69.3047 78.3439C59.5391 88.1095 59.5391 103.93 69.3047 113.695C79.0703 123.461 94.8906 123.461 104.656 113.695C106.492 111.859 106.492 108.891 104.656 107.074C102.82 105.258 99.8516 105.238 98.0352 107.074C91.9414 113.168 82.0391 113.168 75.9453 107.074V107.055Z" fill="url(#paint1_linear_158_143)"/>
<defs>
<linearGradient id="paint0_linear_158_143" x1="1.01912e-08" y1="50.0002" x2="347.5" y2="259" gradientUnits="userSpaceOnUse">
<stop stop-color="white"/>
<stop offset="1" stop-color="#595959" stop-opacity="0"/>
</linearGradient>
<linearGradient id="paint1_linear_158_143" x1="1.01912e-08" y1="50.0002" x2="347.5" y2="259" gradientUnits="userSpaceOnUse">
<stop stop-color="white"/>
<stop offset="1" stop-color="#595959" stop-opacity="0"/>
</linearGradient>
</defs>
</svg>
