<svg width="174" height="197" viewBox="0 0 174 197" fill="none" xmlns="http://www.w3.org/2000/svg">
<path fill-rule="evenodd" clip-rule="evenodd" d="M91.6025 1.33975C88.5085 -0.446581 84.6966 -0.446584 81.6025 1.33974L5 45.5662C1.90599 47.3526 0 50.6538 0 54.2265V142.68C0 146.252 1.90598 149.553 4.99999 151.34L81.6025 195.566C84.6965 197.353 88.5085 197.353 91.6025 195.566L168.205 151.34C171.299 149.553 173.205 146.252 173.205 142.68V54.2265C173.205 50.6538 171.299 47.3526 168.205 45.5662L91.6025 1.33975ZM91.6025 11.3397C88.5085 9.55342 84.6966 9.55342 81.6025 11.3397L13.6603 50.5662C10.5662 52.3526 8.66026 55.6538 8.66026 59.2265V137.68C8.66026 141.252 10.5662 144.553 13.6603 146.34L81.6025 185.566C84.6965 187.353 88.5085 187.353 91.6025 185.566L159.545 146.34C162.639 144.553 164.545 141.252 164.545 137.68V59.2265C164.545 55.6538 162.639 52.3526 159.545 50.5662L91.6025 11.3397Z" fill="url(#paint0_linear_158_144)"/>
<path d="M86.6025 54.828C97.377 54.828 107.71 59.1081 115.329 66.7268C122.947 74.3454 127.228 84.6786 127.228 95.453C127.228 106.227 122.947 116.561 115.329 124.179C107.71 131.798 97.377 136.078 86.6025 136.078C75.8281 136.078 65.495 131.798 57.8763 124.179C50.2577 116.561 45.9775 106.227 45.9775 95.453C45.9775 84.6786 50.2577 74.3454 57.8763 66.7268C65.495 59.1081 75.8281 54.828 86.6025 54.828ZM86.6025 145.453C99.8634 145.453 112.581 140.185 121.958 130.808C131.335 121.432 136.603 108.714 136.603 95.453C136.603 82.1922 131.335 69.4745 121.958 60.0977C112.581 50.7208 99.8634 45.453 86.6025 45.453C73.3417 45.453 60.624 50.7208 51.2472 60.0977C41.8704 69.4745 36.6025 82.1922 36.6025 95.453C36.6025 108.714 41.8704 121.432 51.2472 130.808C60.624 140.185 73.3417 145.453 86.6025 145.453ZM75.5479 106.508C69.4541 100.414 69.4541 90.5116 75.5479 84.4178C81.6416 78.3241 91.5439 78.3241 97.6377 84.4178C99.4736 86.2538 102.442 86.2538 104.259 84.4178C106.075 82.5819 106.095 79.6132 104.259 77.7967C94.4932 68.0311 78.6729 68.0311 68.9072 77.7967C59.1416 87.5624 59.1416 103.383 68.9072 113.148C78.6729 122.914 94.4932 122.914 104.259 113.148C106.095 111.312 106.095 108.344 104.259 106.527C102.423 104.711 99.4541 104.691 97.6377 106.527C91.5439 112.621 81.6416 112.621 75.5479 106.527V106.508Z" fill="url(#paint1_linear_158_144)"/>
<defs>
<linearGradient id="paint0_linear_158_144" x1="-0.397461" y1="49.4531" x2="347.102" y2="258.453" gradientUnits="userSpaceOnUse">
<stop stop-color="#FF0000"/>
<stop offset="1" stop-color="#595959" stop-opacity="0"/>
</linearGradient>
<linearGradient id="paint1_linear_158_144" x1="-0.397461" y1="49.4531" x2="347.102" y2="258.453" gradientUnits="userSpaceOnUse">
<stop stop-color="#FF0000"/>
<stop offset="1" stop-color="#595959" stop-opacity="0"/>
</linearGradient>
</defs>
</svg>
