<svg width="174" height="197" viewBox="0 0 174 197" fill="none" xmlns="http://www.w3.org/2000/svg">
<path fill-rule="evenodd" clip-rule="evenodd" d="M91.6025 1.33975C88.5085 -0.446581 84.6966 -0.446584 81.6025 1.33974L5 45.5662C1.90599 47.3526 0 50.6538 0 54.2265V142.68C0 146.252 1.90598 149.553 4.99999 151.34L81.6025 195.566C84.6965 197.353 88.5085 197.353 91.6025 195.566L168.205 151.34C171.299 149.553 173.205 146.252 173.205 142.68V54.2265C173.205 50.6538 171.299 47.3526 168.205 45.5662L91.6025 1.33975ZM91.6025 11.3397C88.5085 9.55342 84.6966 9.55342 81.6025 11.3397L13.6603 50.5662C10.5662 52.3526 8.66026 55.6538 8.66026 59.2265V137.68C8.66026 141.252 10.5662 144.553 13.6603 146.34L81.6025 185.566C84.6965 187.353 88.5085 187.353 91.6025 185.566L159.545 146.34C162.639 144.553 164.545 141.252 164.545 137.68V59.2265C164.545 55.6538 162.639 52.3526 159.545 50.5662L91.6025 11.3397Z" fill="url(#paint0_linear_158_138)"/>
<path d="M70.0359 57.9572L102.632 57.953C103.173 57.953 103.707 57.9613 104.232 58.0738L104.748 58.2238C106.613 58.7153 108.249 59.8374 109.379 61.3992C110.51 62.961 111.064 64.8661 110.948 66.7905L110.882 67.4655L110.223 72.0655L114.636 73.1655C117.217 73.8108 119.524 75.2627 121.223 77.31C122.922 79.3573 123.924 81.8932 124.082 84.5488L124.103 85.2947V120.453C124.103 123.641 122.885 126.709 120.697 129.029C118.51 131.349 115.519 132.745 112.336 132.932L111.603 132.953H61.6025C58.4142 132.953 55.3462 131.735 53.0265 129.548C50.7067 127.36 49.3104 124.369 49.1234 121.186L49.1025 120.453V85.2947C49.1024 82.6346 49.9508 80.0438 51.5245 77.8991C53.0982 75.7544 55.315 74.1677 57.8525 73.3697L58.5692 73.1655L62.9817 72.0655L62.3234 67.4655C62.0499 65.5507 62.4507 63.6004 63.4571 61.9486C64.4636 60.2968 66.013 59.0463 67.84 58.4113L68.4567 58.2238C68.9692 58.028 69.4984 57.9738 70.0359 57.9572ZM109.036 80.3572L107.803 89.0155C107.663 89.9962 107.292 90.9296 106.721 91.7389C106.149 92.5481 105.394 93.2099 104.516 93.6698C103.639 94.1296 102.665 94.3743 101.674 94.3837C100.684 94.3931 99.7052 94.167 98.8192 93.7238L90.7692 89.6905V124.62H111.603C112.708 124.62 113.767 124.181 114.549 123.399C115.33 122.618 115.769 121.558 115.769 120.453V85.2947C115.769 84.3652 115.458 83.4626 114.886 82.7302C114.313 81.9979 113.513 81.4779 112.611 81.253L109.036 80.3572ZM64.165 80.3572L60.59 81.2488C59.7677 81.4554 59.028 81.9079 58.4696 82.5459C57.9112 83.184 57.5607 83.9772 57.465 84.8197L57.4359 85.2947V120.453C57.436 121.474 57.8107 122.459 58.4889 123.221C59.167 123.984 60.1015 124.471 61.115 124.59L61.6025 124.62H82.4359V89.6947L74.3859 93.7197C73.5415 94.1423 72.6123 94.3681 71.6681 94.3801C70.724 94.3921 69.7893 94.1901 68.9345 93.7891C68.0796 93.3881 67.3267 92.7987 66.7323 92.065C66.1379 91.3313 65.7174 90.4725 65.5025 89.553L65.4025 89.0113L64.165 80.3572ZM107.436 103.786C108.541 103.786 109.601 104.225 110.382 105.007C111.164 105.788 111.603 106.848 111.603 107.953C111.603 109.058 111.164 110.118 110.382 110.899C109.601 111.681 108.541 112.12 107.436 112.12H103.269C102.164 112.12 101.104 111.681 100.323 110.899C99.5415 110.118 99.1025 109.058 99.1025 107.953C99.1025 106.848 99.5415 105.788 100.323 105.007C101.104 104.225 102.164 103.786 103.269 103.786H107.436ZM102.061 70.303L93.0734 81.5363L99.9567 84.978L102.053 70.3113L102.061 70.303ZM71.1442 70.303L73.2442 84.9738L80.1275 81.5322L71.1484 70.303H71.1442ZM94.6025 66.2863H78.6025L86.6025 76.2863L94.6025 66.2863Z" fill="url(#paint1_linear_158_138)"/>
<defs>
<linearGradient id="paint0_linear_158_138" x1="-0.397461" y1="49.4531" x2="347.102" y2="258.453" gradientUnits="userSpaceOnUse">
<stop stop-color="#00FF94"/>
<stop offset="1" stop-color="#595959" stop-opacity="0"/>
</linearGradient>
<linearGradient id="paint1_linear_158_138" x1="-0.397461" y1="49.4531" x2="347.102" y2="258.453" gradientUnits="userSpaceOnUse">
<stop stop-color="#00FF94"/>
<stop offset="1" stop-color="#595959" stop-opacity="0"/>
</linearGradient>
</defs>
</svg>
