<svg width="174" height="198" viewBox="0 0 174 198" fill="none" xmlns="http://www.w3.org/2000/svg">
<path fill-rule="evenodd" clip-rule="evenodd" d="M92 1.88687C88.906 0.100539 85.094 0.100536 82 1.88686L5.39746 46.1134C2.30345 47.8997 0.397461 51.201 0.397461 54.7736V143.227C0.397461 146.799 2.30344 150.101 5.39746 151.887L82 196.113C85.094 197.9 88.906 197.9 92 196.113L168.603 151.887C171.697 150.101 173.603 146.799 173.603 143.227V54.7736C173.603 51.201 171.697 47.8997 168.603 46.1134L92 1.88687ZM92 11.8869C88.906 10.1005 85.094 10.1005 82 11.8869L14.0577 51.1134C10.9637 52.8997 9.05772 56.201 9.05772 59.7736V138.227C9.05772 141.799 10.9637 145.101 14.0577 146.887L82 186.113C85.094 187.9 88.906 187.9 92 186.113L159.942 146.887C163.036 145.101 164.942 141.799 164.942 138.227V59.7736C164.942 56.201 163.036 52.8997 159.942 51.1134L92 11.8869Z" fill="url(#paint0_linear_158_137)"/>
<path d="M70.4333 58.5043L103.029 58.5001C103.571 58.5001 104.104 58.5084 104.629 58.6209L105.146 58.771C107.01 59.2625 108.646 60.3845 109.777 61.9463C110.907 63.5081 111.462 65.4132 111.346 67.3376L111.279 68.0126L110.621 72.6126L115.033 73.7126C117.614 74.3579 119.922 75.8098 121.621 77.8571C123.32 79.9044 124.321 82.4403 124.479 85.0959L124.5 85.8418V121C124.5 124.188 123.282 127.256 121.095 129.576C118.907 131.896 115.916 133.292 112.733 133.479L112 133.5H62C58.8116 133.5 55.7437 132.282 53.4239 130.095C51.1041 127.907 49.7079 124.916 49.5208 121.733L49.5 121V85.8418C49.4998 83.1817 50.3483 80.5909 51.922 78.4462C53.4956 76.3015 55.7124 74.7148 58.25 73.9168L58.9667 73.7126L63.3792 72.6126L62.7208 68.0126C62.4474 66.0978 62.8482 64.1475 63.8546 62.4957C64.861 60.8439 66.4105 59.5934 68.2375 58.9584L68.8542 58.771C69.3667 58.5751 69.8958 58.5209 70.4333 58.5043ZM109.433 80.9043L108.2 89.5626C108.06 90.5433 107.689 91.4768 107.118 92.286C106.547 93.0952 105.791 93.757 104.914 94.2169C104.036 94.6767 103.062 94.9214 102.072 94.9309C101.081 94.9403 100.103 94.7141 99.2167 94.271L91.1667 90.2376V125.167H112C113.105 125.167 114.165 124.728 114.946 123.946C115.728 123.165 116.167 122.105 116.167 121V85.8418C116.166 84.9124 115.855 84.0097 115.283 83.2774C114.711 82.545 113.91 82.025 113.008 81.8001L109.433 80.9043ZM64.5625 80.9043L60.9875 81.7959C60.1652 82.0025 59.4254 82.455 58.867 83.0931C58.3086 83.7311 57.9582 84.5243 57.8625 85.3668L57.8333 85.8418V121C57.8335 122.021 58.2082 123.006 58.8863 123.768C59.5645 124.531 60.499 125.018 61.5125 125.138L62 125.167H82.8333V90.2418L74.7833 94.2668C73.9389 94.6894 73.0098 94.9152 72.0656 94.9272C71.1214 94.9393 70.1868 94.7372 69.3319 94.3362C68.477 93.9352 67.7241 93.3458 67.1297 92.6121C66.5353 91.8784 66.1149 91.0196 65.9 90.1001L65.8 89.5584L64.5625 80.9043ZM107.833 104.333C108.938 104.333 109.998 104.772 110.78 105.554C111.561 106.335 112 107.395 112 108.5C112 109.605 111.561 110.665 110.78 111.446C109.998 112.228 108.938 112.667 107.833 112.667H103.667C102.562 112.667 101.502 112.228 100.72 111.446C99.939 110.665 99.5 109.605 99.5 108.5C99.5 107.395 99.939 106.335 100.72 105.554C101.502 104.772 102.562 104.333 103.667 104.333H107.833ZM102.458 70.8501L93.4708 82.0835L100.354 85.5251L102.45 70.8585L102.458 70.8501ZM71.5417 70.8501L73.6417 85.5209L80.525 82.0793L71.5458 70.8501H71.5417ZM95 66.8335H79L87 76.8335L95 66.8335Z" fill="url(#paint1_linear_158_137)"/>
<defs>
<linearGradient id="paint0_linear_158_137" x1="1.01912e-08" y1="50.0002" x2="347.5" y2="259" gradientUnits="userSpaceOnUse">
<stop stop-color="white"/>
<stop offset="1" stop-color="#595959" stop-opacity="0"/>
</linearGradient>
<linearGradient id="paint1_linear_158_137" x1="1.01912e-08" y1="50.0002" x2="347.5" y2="259" gradientUnits="userSpaceOnUse">
<stop stop-color="white"/>
<stop offset="1" stop-color="#595959" stop-opacity="0"/>
</linearGradient>
</defs>
</svg>
