<svg width="174" height="198" viewBox="0 0 174 198" fill="none" xmlns="http://www.w3.org/2000/svg">
<path fill-rule="evenodd" clip-rule="evenodd" d="M92 1.88687C88.906 0.100539 85.094 0.100536 82 1.88686L5.39746 46.1134C2.30345 47.8997 0.397461 51.201 0.397461 54.7736V143.227C0.397461 146.799 2.30344 150.101 5.39746 151.887L82 196.113C85.094 197.9 88.906 197.9 92 196.113L168.603 151.887C171.697 150.101 173.603 146.799 173.603 143.227V54.7736C173.603 51.201 171.697 47.8997 168.603 46.1134L92 1.88687ZM92 11.8869C88.906 10.1005 85.094 10.1005 82 11.8869L14.0577 51.1134C10.9637 52.8997 9.05772 56.201 9.05772 59.7736V138.227C9.05772 141.799 10.9637 145.101 14.0577 146.887L82 186.113C85.094 187.9 88.906 187.9 92 186.113L159.942 146.887C163.036 145.101 164.942 141.799 164.942 138.227V59.7736C164.942 56.201 163.036 52.8997 159.942 51.1134L92 11.8869Z" fill="url(#paint0_linear_158_125)"/>
<path d="M87.125 48.0001C63.3463 48.0001 44 67.3464 44 91.1251C44 108.559 54.4212 123.578 69.3425 130.369C68.927 127.394 68.6292 124.404 68.45 121.406C58.2987 115.114 51.5 103.913 51.5 91.1251C51.5 71.4826 67.4825 55.5001 87.125 55.5001C106.768 55.5001 122.75 71.4826 122.75 91.1251C122.75 103.916 115.951 115.118 105.8 121.403C105.621 124.401 105.323 127.391 104.908 130.365C119.833 123.581 130.25 108.563 130.25 91.1251C130.25 67.3464 110.904 48.0001 87.125 48.0001ZM87.125 63.0001C71.615 63.0001 59 75.6151 59 91.1251C59.0014 95.3221 59.9436 99.4654 61.7575 103.25C63.5714 107.035 66.2107 110.365 69.4812 112.995C70.375 110.609 71.8479 108.483 73.7675 106.808C71.4914 104.877 69.6625 102.474 68.4075 99.7663C67.1526 97.0583 66.5017 94.1098 66.5 91.1251C66.5 79.7551 75.755 70.5001 87.125 70.5001C98.495 70.5001 107.75 79.7551 107.75 91.1251C107.748 94.1098 107.097 97.0583 105.842 99.7663C104.588 102.474 102.759 104.877 100.482 106.808C102.405 108.48 103.878 110.607 104.769 112.995C108.039 110.365 110.679 107.035 112.493 103.25C114.306 99.4654 115.249 95.3221 115.25 91.1251C115.25 75.6151 102.635 63.0001 87.125 63.0001ZM87.125 78.0001C79.8875 78.0001 74 83.8876 74 91.1251C74 98.3626 79.8875 104.25 87.125 104.25C94.3625 104.25 100.25 98.3626 100.25 91.1251C100.25 83.8876 94.3625 78.0001 87.125 78.0001ZM87.125 85.5001C90.2262 85.5001 92.75 88.0239 92.75 91.1251C92.75 94.2264 90.2262 96.7501 87.125 96.7501C84.0238 96.7501 81.5 94.2264 81.5 91.1251C81.5 88.0239 84.0238 85.5001 87.125 85.5001ZM87.125 108C75.2787 108 74 115.785 74 119.134C74 125.299 76.0137 137.696 77.1125 142.403C77.6 144.465 79.5425 149.25 87.125 149.25C94.7075 149.25 96.65 144.465 97.1375 142.403C98.2363 137.704 100.25 125.299 100.25 119.134C100.25 115.785 98.9713 108 87.125 108ZM87.125 115.5C92.75 115.5 92.75 117.6 92.75 119.134C92.75 124.14 90.9875 135.746 89.8363 140.689C89.7425 141.083 89.585 141.75 87.125 141.75C84.665 141.75 84.5075 141.086 84.4137 140.696C83.2663 135.769 81.5 124.144 81.5 119.134C81.5 117.596 81.5 115.5 87.125 115.5Z" fill="url(#paint1_linear_158_125)"/>
<defs>
<linearGradient id="paint0_linear_158_125" x1="1.01912e-08" y1="50.0002" x2="347.5" y2="259" gradientUnits="userSpaceOnUse">
<stop stop-color="#FFC700"/>
<stop offset="1" stop-color="#595959" stop-opacity="0"/>
</linearGradient>
<linearGradient id="paint1_linear_158_125" x1="1.01912e-08" y1="50.0002" x2="347.5" y2="259" gradientUnits="userSpaceOnUse">
<stop stop-color="#FFC700"/>
<stop offset="1" stop-color="#595959" stop-opacity="0"/>
</linearGradient>
</defs>
</svg>
